<?xml version="1.0" encoding="utf-8" standalone="no"?>
<!DOCTYPE svg PUBLIC "-//W3C//DTD SVG 1.1//EN"
  "http://www.w3.org/Graphics/SVG/1.1/DTD/svg11.dtd">
<svg xmlns:xlink="http://www.w3.org/1999/xlink" width="756pt" height="316.8pt" viewBox="0 0 756 316.8" xmlns="http://www.w3.org/2000/svg" version="1.1">
 <metadata>
  <rdf:RDF xmlns:dc="http://purl.org/dc/elements/1.1/" xmlns:cc="http://creativecommons.org/ns#" xmlns:rdf="http://www.w3.org/1999/02/22-rdf-syntax-ns#">
   <cc:Work>
    <dc:type rdf:resource="http://purl.org/dc/dcmitype/StillImage"/>
    <dc:format>image/svg+xml</dc:format>
    <dc:creator>
     <cc:Agent>
      <dc:title>tt-rqm-kernels deterministic SU2 generator</dc:title>
     </cc:Agent>
    </dc:creator>
   </cc:Work>
  </rdf:RDF>
 </metadata>
 <defs>
  <style type="text/css">*{stroke-linejoin: round; stroke-linecap: butt}</style>
 </defs>
 <g id="figure_1">
  <g id="patch_1">
   <path d="M 0 316.8
L 756 316.8
L 756 0
L 0 0
z
" style="fill: #ffffff"/>
  </g>
  <g id="axes_1">
   <g id="patch_2">
    <path d="M 43.860552 285.379135
L 374.22 285.379135
L 374.22 19.453095
L 43.860552 19.453095
z
" style="fill: #ffffff"/>
   </g>
   <g id="matplotlib.axis_1">
    <g id="xtick_1">
     <g id="line2d_1">
      <defs>
       <path id="mtt_rqm_000" d="M 0 0
L 0 3.5
" style="stroke: #000000; stroke-width: 0.8"/>
      </defs>
      <g>
       <use xlink:href="#mtt_rqm_000" x="54.109799" y="285.379135" style="stroke: #000000; stroke-width: 0.8"/>
      </g>
     </g>
     <g id="text_1">
      <!-- 0 -->
      <g transform="translate(51.246674 299.217729) scale(0.09 -0.09)">
       <defs>
        <path id="DejaVuSans-30" d="M 2034 4250
Q 1547 4250 1301 3770
Q 1056 3291 1056 2328
Q 1056 1369 1301 889
Q 1547 409 2034 409
Q 2525 409 2770 889
Q 3016 1369 3016 2328
Q 3016 3291 2770 3770
Q 2525 4250 2034 4250
z
M 2034 4750
Q 2819 4750 3233 4129
Q 3647 3509 3647 2328
Q 3647 1150 3233 529
Q 2819 -91 2034 -91
Q 1250 -91 836 529
Q 422 1150 422 2328
Q 422 3509 836 4129
Q 1250 4750 2034 4750
z
" transform="scale(0.015625)"/>
       </defs>
       <use xlink:href="#DejaVuSans-30"/>
      </g>
     </g>
    </g>
    <g id="xtick_2">
     <g id="line2d_2">
      <g>
       <use xlink:href="#mtt_rqm_000" x="113.698444" y="285.379135" style="stroke: #000000; stroke-width: 0.8"/>
      </g>
     </g>
     <g id="text_2">
      <!-- 100 -->
      <g transform="translate(105.109069 299.217729) scale(0.09 -0.09)">
       <defs>
        <path id="DejaVuSans-31" d="M 794 531
L 1825 531
L 1825 4091
L 703 3866
L 703 4441
L 1819 4666
L 2450 4666
L 2450 531
L 3481 531
L 3481 0
L 794 0
L 794 531
z
" transform="scale(0.015625)"/>
       </defs>
       <use xlink:href="#DejaVuSans-31"/>
       <use xlink:href="#DejaVuSans-30" transform="translate(63.623047 0)"/>
       <use xlink:href="#DejaVuSans-30" transform="translate(127.246094 0)"/>
      </g>
     </g>
    </g>
    <g id="xtick_3">
     <g id="line2d_3">
      <g>
       <use xlink:href="#mtt_rqm_000" x="173.287089" y="285.379135" style="stroke: #000000; stroke-width: 0.8"/>
      </g>
     </g>
     <g id="text_3">
      <!-- 200 -->
      <g transform="translate(164.697714 299.217729) scale(0.09 -0.09)">
       <defs>
        <path id="DejaVuSans-32" d="M 1228 531
L 3431 531
L 3431 0
L 469 0
L 469 531
Q 828 903 1448 1529
Q 2069 2156 2228 2338
Q 2531 2678 2651 2914
Q 2772 3150 2772 3378
Q 2772 3750 2511 3984
Q 2250 4219 1831 4219
Q 1534 4219 1204 4116
Q 875 4013 500 3803
L 500 4441
Q 881 4594 1212 4672
Q 1544 4750 1819 4750
Q 2544 4750 2975 4387
Q 3406 4025 3406 3419
Q 3406 3131 3298 2873
Q 3191 2616 2906 2266
Q 2828 2175 2409 1742
Q 1991 1309 1228 531
z
" transform="scale(0.015625)"/>
       </defs>
       <use xlink:href="#DejaVuSans-32"/>
       <use xlink:href="#DejaVuSans-30" transform="translate(63.623047 0)"/>
       <use xlink:href="#DejaVuSans-30" transform="translate(127.246094 0)"/>
      </g>
     </g>
    </g>
    <g id="xtick_4">
     <g id="line2d_4">
      <g>
       <use xlink:href="#mtt_rqm_000" x="232.875734" y="285.379135" style="stroke: #000000; stroke-width: 0.8"/>
      </g>
     </g>
     <g id="text_4">
      <!-- 300 -->
      <g transform="translate(224.286359 299.217729) scale(0.09 -0.09)">
       <defs>
        <path id="DejaVuSans-33" d="M 2597 2516
Q 3050 2419 3304 2112
Q 3559 1806 3559 1356
Q 3559 666 3084 287
Q 2609 -91 1734 -91
Q 1441 -91 1130 -33
Q 819 25 488 141
L 488 750
Q 750 597 1062 519
Q 1375 441 1716 441
Q 2309 441 2620 675
Q 2931 909 2931 1356
Q 2931 1769 2642 2001
Q 2353 2234 1838 2234
L 1294 2234
L 1294 2753
L 1863 2753
Q 2328 2753 2575 2939
Q 2822 3125 2822 3475
Q 2822 3834 2567 4026
Q 2313 4219 1838 4219
Q 1578 4219 1281 4162
Q 984 4106 628 3988
L 628 4550
Q 988 4650 1302 4700
Q 1616 4750 1894 4750
Q 2613 4750 3031 4423
Q 3450 4097 3450 3541
Q 3450 3153 3228 2886
Q 3006 2619 2597 2516
z
" transform="scale(0.015625)"/>
       </defs>
       <use xlink:href="#DejaVuSans-33"/>
       <use xlink:href="#DejaVuSans-30" transform="translate(63.623047 0)"/>
       <use xlink:href="#DejaVuSans-30" transform="translate(127.246094 0)"/>
      </g>
     </g>
    </g>
    <g id="xtick_5">
     <g id="line2d_5">
      <g>
       <use xlink:href="#mtt_rqm_000" x="292.464379" y="285.379135" style="stroke: #000000; stroke-width: 0.8"/>
      </g>
     </g>
     <g id="text_5">
      <!-- 400 -->
      <g transform="translate(283.875004 299.217729) scale(0.09 -0.09)">
       <defs>
        <path id="DejaVuSans-34" d="M 2419 4116
L 825 1625
L 2419 1625
L 2419 4116
z
M 2253 4666
L 3047 4666
L 3047 1625
L 3713 1625
L 3713 1100
L 3047 1100
L 3047 0
L 2419 0
L 2419 1100
L 313 1100
L 313 1709
L 2253 4666
z
" transform="scale(0.015625)"/>
       </defs>
       <use xlink:href="#DejaVuSans-34"/>
       <use xlink:href="#DejaVuSans-30" transform="translate(63.623047 0)"/>
       <use xlink:href="#DejaVuSans-30" transform="translate(127.246094 0)"/>
      </g>
     </g>
    </g>
    <g id="xtick_6">
     <g id="line2d_6">
      <g>
       <use xlink:href="#mtt_rqm_000" x="352.053024" y="285.379135" style="stroke: #000000; stroke-width: 0.8"/>
      </g>
     </g>
     <g id="text_6">
      <!-- 500 -->
      <g transform="translate(343.463649 299.217729) scale(0.09 -0.09)">
       <defs>
        <path id="DejaVuSans-35" d="M 691 4666
L 3169 4666
L 3169 4134
L 1269 4134
L 1269 2991
Q 1406 3038 1543 3061
Q 1681 3084 1819 3084
Q 2600 3084 3056 2656
Q 3513 2228 3513 1497
Q 3513 744 3044 326
Q 2575 -91 1722 -91
Q 1428 -91 1123 -41
Q 819 9 494 109
L 494 744
Q 775 591 1075 516
Q 1375 441 1709 441
Q 2250 441 2565 725
Q 2881 1009 2881 1497
Q 2881 1984 2565 2268
Q 2250 2553 1709 2553
Q 1456 2553 1204 2497
Q 953 2441 691 2322
L 691 4666
z
" transform="scale(0.015625)"/>
       </defs>
       <use xlink:href="#DejaVuSans-35"/>
       <use xlink:href="#DejaVuSans-30" transform="translate(63.623047 0)"/>
       <use xlink:href="#DejaVuSans-30" transform="translate(127.246094 0)"/>
      </g>
     </g>
    </g>
    <g id="text_7">
     <!-- K -->
     <g transform="translate(206.089261 311.928041) scale(0.09 -0.09)">
      <defs>
       <path id="DejaVuSans-4b" d="M 628 4666
L 1259 4666
L 1259 2694
L 3353 4666
L 4166 4666
L 1850 2491
L 4331 0
L 3500 0
L 1259 2247
L 1259 0
L 628 0
L 628 4666
z
" transform="scale(0.015625)"/>
      </defs>
      <use xlink:href="#DejaVuSans-4b"/>
     </g>
    </g>
   </g>
   <g id="matplotlib.axis_2">
    <g id="ytick_1">
     <g id="line2d_7">
      <defs>
       <path id="mtt_rqm_001" d="M 0 0
L -3.5 0
" style="stroke: #000000; stroke-width: 0.8"/>
      </defs>
      <g>
       <use xlink:href="#mtt_rqm_001" x="43.860552" y="230.364552" style="stroke: #000000; stroke-width: 0.8"/>
      </g>
     </g>
     <g id="text_8">
      <!-- $\mathdefault{10^{-6}}$ -->
      <g transform="translate(15.710552 233.783849) scale(0.09 -0.09)">
       <defs>
        <path id="DejaVuSans-2212" d="M 678 2272
L 4684 2272
L 4684 1741
L 678 1741
L 678 2272
z
" transform="scale(0.015625)"/>
        <path id="DejaVuSans-36" d="M 2113 2584
Q 1688 2584 1439 2293
Q 1191 2003 1191 1497
Q 1191 994 1439 701
Q 1688 409 2113 409
Q 2538 409 2786 701
Q 3034 994 3034 1497
Q 3034 2003 2786 2293
Q 2538 2584 2113 2584
z
M 3366 4563
L 3366 3988
Q 3128 4100 2886 4159
Q 2644 4219 2406 4219
Q 1781 4219 1451 3797
Q 1122 3375 1075 2522
Q 1259 2794 1537 2939
Q 1816 3084 2150 3084
Q 2853 3084 3261 2657
Q 3669 2231 3669 1497
Q 3669 778 3244 343
Q 2819 -91 2113 -91
Q 1303 -91 875 529
Q 447 1150 447 2328
Q 447 3434 972 4092
Q 1497 4750 2381 4750
Q 2619 4750 2861 4703
Q 3103 4656 3366 4563
z
" transform="scale(0.015625)"/>
       </defs>
       <use xlink:href="#DejaVuSans-31" transform="translate(0 0.765625)"/>
       <use xlink:href="#DejaVuSans-30" transform="translate(63.623047 0.765625)"/>
       <use xlink:href="#DejaVuSans-2212" transform="translate(128.203125 39.046875) scale(0.7)"/>
       <use xlink:href="#DejaVuSans-36" transform="translate(186.855469 39.046875) scale(0.7)"/>
      </g>
     </g>
    </g>
    <g id="ytick_2">
     <g id="line2d_8">
      <g>
       <use xlink:href="#mtt_rqm_001" x="43.860552" y="130.952597" style="stroke: #000000; stroke-width: 0.8"/>
      </g>
     </g>
     <g id="text_9">
      <!-- $\mathdefault{10^{-5}}$ -->
      <g transform="translate(15.710552 134.371894) scale(0.09 -0.09)">
       <use xlink:href="#DejaVuSans-31" transform="translate(0 0.684375)"/>
       <use xlink:href="#DejaVuSans-30" transform="translate(63.623047 0.684375)"/>
       <use xlink:href="#DejaVuSans-2212" transform="translate(128.203125 38.965625) scale(0.7)"/>
       <use xlink:href="#DejaVuSans-35" transform="translate(186.855469 38.965625) scale(0.7)"/>
      </g>
     </g>
    </g>
    <g id="ytick_3">
     <g id="line2d_9">
      <g>
       <use xlink:href="#mtt_rqm_001" x="43.860552" y="31.540642" style="stroke: #000000; stroke-width: 0.8"/>
      </g>
     </g>
     <g id="text_10">
      <!-- $\mathdefault{10^{-4}}$ -->
      <g transform="translate(15.710552 34.959939) scale(0.09 -0.09)">
       <use xlink:href="#DejaVuSans-31" transform="translate(0 0.684375)"/>
       <use xlink:href="#DejaVuSans-30" transform="translate(63.623047 0.684375)"/>
       <use xlink:href="#DejaVuSans-2212" transform="translate(128.203125 38.965625) scale(0.7)"/>
       <use xlink:href="#DejaVuSans-34" transform="translate(186.855469 38.965625) scale(0.7)"/>
      </g>
     </g>
    </g>
    <g id="ytick_4">
     <g id="line2d_10">
      <defs>
       <path id="mtt_rqm_002" d="M 0 0
L -2 0
" style="stroke: #000000; stroke-width: 0.6"/>
      </defs>
      <g>
       <use xlink:href="#mtt_rqm_002" x="43.860552" y="282.34495" style="stroke: #000000; stroke-width: 0.6"/>
      </g>
     </g>
    </g>
    <g id="ytick_5">
     <g id="line2d_11">
      <g>
       <use xlink:href="#mtt_rqm_002" x="43.860552" y="269.924546" style="stroke: #000000; stroke-width: 0.6"/>
      </g>
     </g>
    </g>
    <g id="ytick_6">
     <g id="line2d_12">
      <g>
       <use xlink:href="#mtt_rqm_002" x="43.860552" y="260.290532" style="stroke: #000000; stroke-width: 0.6"/>
      </g>
     </g>
    </g>
    <g id="ytick_7">
     <g id="line2d_13">
      <g>
       <use xlink:href="#mtt_rqm_002" x="43.860552" y="252.41897" style="stroke: #000000; stroke-width: 0.6"/>
      </g>
     </g>
    </g>
    <g id="ytick_8">
     <g id="line2d_14">
      <g>
       <use xlink:href="#mtt_rqm_002" x="43.860552" y="245.763658" style="stroke: #000000; stroke-width: 0.6"/>
      </g>
     </g>
    </g>
    <g id="ytick_9">
     <g id="line2d_15">
      <g>
       <use xlink:href="#mtt_rqm_002" x="43.860552" y="239.998566" style="stroke: #000000; stroke-width: 0.6"/>
      </g>
     </g>
    </g>
    <g id="ytick_10">
     <g id="line2d_16">
      <g>
       <use xlink:href="#mtt_rqm_002" x="43.860552" y="234.913393" style="stroke: #000000; stroke-width: 0.6"/>
      </g>
     </g>
    </g>
    <g id="ytick_11">
     <g id="line2d_17">
      <g>
       <use xlink:href="#mtt_rqm_002" x="43.860552" y="200.438572" style="stroke: #000000; stroke-width: 0.6"/>
      </g>
     </g>
    </g>
    <g id="ytick_12">
     <g id="line2d_18">
      <g>
       <use xlink:href="#mtt_rqm_002" x="43.860552" y="182.932995" style="stroke: #000000; stroke-width: 0.6"/>
      </g>
     </g>
    </g>
    <g id="ytick_13">
     <g id="line2d_19">
      <g>
       <use xlink:href="#mtt_rqm_002" x="43.860552" y="170.512591" style="stroke: #000000; stroke-width: 0.6"/>
      </g>
     </g>
    </g>
    <g id="ytick_14">
     <g id="line2d_20">
      <g>
       <use xlink:href="#mtt_rqm_002" x="43.860552" y="160.878577" style="stroke: #000000; stroke-width: 0.6"/>
      </g>
     </g>
    </g>
    <g id="ytick_15">
     <g id="line2d_21">
      <g>
       <use xlink:href="#mtt_rqm_002" x="43.860552" y="153.007015" style="stroke: #000000; stroke-width: 0.6"/>
      </g>
     </g>
    </g>
    <g id="ytick_16">
     <g id="line2d_22">
      <g>
       <use xlink:href="#mtt_rqm_002" x="43.860552" y="146.351704" style="stroke: #000000; stroke-width: 0.6"/>
      </g>
     </g>
    </g>
    <g id="ytick_17">
     <g id="line2d_23">
      <g>
       <use xlink:href="#mtt_rqm_002" x="43.860552" y="140.586611" style="stroke: #000000; stroke-width: 0.6"/>
      </g>
     </g>
    </g>
    <g id="ytick_18">
     <g id="line2d_24">
      <g>
       <use xlink:href="#mtt_rqm_002" x="43.860552" y="135.501439" style="stroke: #000000; stroke-width: 0.6"/>
      </g>
     </g>
    </g>
    <g id="ytick_19">
     <g id="line2d_25">
      <g>
       <use xlink:href="#mtt_rqm_002" x="43.860552" y="101.026617" style="stroke: #000000; stroke-width: 0.6"/>
      </g>
     </g>
    </g>
    <g id="ytick_20">
     <g id="line2d_26">
      <g>
       <use xlink:href="#mtt_rqm_002" x="43.860552" y="83.52104" style="stroke: #000000; stroke-width: 0.6"/>
      </g>
     </g>
    </g>
    <g id="ytick_21">
     <g id="line2d_27">
      <g>
       <use xlink:href="#mtt_rqm_002" x="43.860552" y="71.100636" style="stroke: #000000; stroke-width: 0.6"/>
      </g>
     </g>
    </g>
    <g id="ytick_22">
     <g id="line2d_28">
      <g>
       <use xlink:href="#mtt_rqm_002" x="43.860552" y="61.466623" style="stroke: #000000; stroke-width: 0.6"/>
      </g>
     </g>
    </g>
    <g id="ytick_23">
     <g id="line2d_29">
      <g>
       <use xlink:href="#mtt_rqm_002" x="43.860552" y="53.59506" style="stroke: #000000; stroke-width: 0.6"/>
      </g>
     </g>
    </g>
    <g id="ytick_24">
     <g id="line2d_30">
      <g>
       <use xlink:href="#mtt_rqm_002" x="43.860552" y="46.939749" style="stroke: #000000; stroke-width: 0.6"/>
      </g>
     </g>
    </g>
    <g id="ytick_25">
     <g id="line2d_31">
      <g>
       <use xlink:href="#mtt_rqm_002" x="43.860552" y="41.174656" style="stroke: #000000; stroke-width: 0.6"/>
      </g>
     </g>
    </g>
    <g id="ytick_26">
     <g id="line2d_32">
      <g>
       <use xlink:href="#mtt_rqm_002" x="43.860552" y="36.089484" style="stroke: #000000; stroke-width: 0.6"/>
      </g>
     </g>
    </g>
    <g id="text_11">
     <!-- Absolute error -->
     <g transform="translate(9.838834 184.406193) rotate(-90) scale(0.09 -0.09)">
      <defs>
       <path id="DejaVuSans-41" d="M 2188 4044
L 1331 1722
L 3047 1722
L 2188 4044
z
M 1831 4666
L 2547 4666
L 4325 0
L 3669 0
L 3244 1197
L 1141 1197
L 716 0
L 50 0
L 1831 4666
z
" transform="scale(0.015625)"/>
       <path id="DejaVuSans-62" d="M 3116 1747
Q 3116 2381 2855 2742
Q 2594 3103 2138 3103
Q 1681 3103 1420 2742
Q 1159 2381 1159 1747
Q 1159 1113 1420 752
Q 1681 391 2138 391
Q 2594 391 2855 752
Q 3116 1113 3116 1747
z
M 1159 2969
Q 1341 3281 1617 3432
Q 1894 3584 2278 3584
Q 2916 3584 3314 3078
Q 3713 2572 3713 1747
Q 3713 922 3314 415
Q 2916 -91 2278 -91
Q 1894 -91 1617 61
Q 1341 213 1159 525
L 1159 0
L 581 0
L 581 4863
L 1159 4863
L 1159 2969
z
" transform="scale(0.015625)"/>
       <path id="DejaVuSans-73" d="M 2834 3397
L 2834 2853
Q 2591 2978 2328 3040
Q 2066 3103 1784 3103
Q 1356 3103 1142 2972
Q 928 2841 928 2578
Q 928 2378 1081 2264
Q 1234 2150 1697 2047
L 1894 2003
Q 2506 1872 2764 1633
Q 3022 1394 3022 966
Q 3022 478 2636 193
Q 2250 -91 1575 -91
Q 1294 -91 989 -36
Q 684 19 347 128
L 347 722
Q 666 556 975 473
Q 1284 391 1588 391
Q 1994 391 2212 530
Q 2431 669 2431 922
Q 2431 1156 2273 1281
Q 2116 1406 1581 1522
L 1381 1569
Q 847 1681 609 1914
Q 372 2147 372 2553
Q 372 3047 722 3315
Q 1072 3584 1716 3584
Q 2034 3584 2315 3537
Q 2597 3491 2834 3397
z
" transform="scale(0.015625)"/>
       <path id="DejaVuSans-6f" d="M 1959 3097
Q 1497 3097 1228 2736
Q 959 2375 959 1747
Q 959 1119 1226 758
Q 1494 397 1959 397
Q 2419 397 2687 759
Q 2956 1122 2956 1747
Q 2956 2369 2687 2733
Q 2419 3097 1959 3097
z
M 1959 3584
Q 2709 3584 3137 3096
Q 3566 2609 3566 1747
Q 3566 888 3137 398
Q 2709 -91 1959 -91
Q 1206 -91 779 398
Q 353 888 353 1747
Q 353 2609 779 3096
Q 1206 3584 1959 3584
z
" transform="scale(0.015625)"/>
       <path id="DejaVuSans-6c" d="M 603 4863
L 1178 4863
L 1178 0
L 603 0
L 603 4863
z
" transform="scale(0.015625)"/>
       <path id="DejaVuSans-75" d="M 544 1381
L 544 3500
L 1119 3500
L 1119 1403
Q 1119 906 1312 657
Q 1506 409 1894 409
Q 2359 409 2629 706
Q 2900 1003 2900 1516
L 2900 3500
L 3475 3500
L 3475 0
L 2900 0
L 2900 538
Q 2691 219 2414 64
Q 2138 -91 1772 -91
Q 1169 -91 856 284
Q 544 659 544 1381
z
M 1991 3584
L 1991 3584
z
" transform="scale(0.015625)"/>
       <path id="DejaVuSans-74" d="M 1172 4494
L 1172 3500
L 2356 3500
L 2356 3053
L 1172 3053
L 1172 1153
Q 1172 725 1289 603
Q 1406 481 1766 481
L 2356 481
L 2356 0
L 1766 0
Q 1100 0 847 248
Q 594 497 594 1153
L 594 3053
L 172 3053
L 172 3500
L 594 3500
L 594 4494
L 1172 4494
z
" transform="scale(0.015625)"/>
       <path id="DejaVuSans-65" d="M 3597 1894
L 3597 1613
L 953 1613
Q 991 1019 1311 708
Q 1631 397 2203 397
Q 2534 397 2845 478
Q 3156 559 3463 722
L 3463 178
Q 3153 47 2828 -22
Q 2503 -91 2169 -91
Q 1331 -91 842 396
Q 353 884 353 1716
Q 353 2575 817 3079
Q 1281 3584 2069 3584
Q 2775 3584 3186 3129
Q 3597 2675 3597 1894
z
M 3022 2063
Q 3016 2534 2758 2815
Q 2500 3097 2075 3097
Q 1594 3097 1305 2825
Q 1016 2553 972 2059
L 3022 2063
z
" transform="scale(0.015625)"/>
       <path id="DejaVuSans-20" transform="scale(0.015625)"/>
       <path id="DejaVuSans-72" d="M 2631 2963
Q 2534 3019 2420 3045
Q 2306 3072 2169 3072
Q 1681 3072 1420 2755
Q 1159 2438 1159 1844
L 1159 0
L 581 0
L 581 3500
L 1159 3500
L 1159 2956
Q 1341 3275 1631 3429
Q 1922 3584 2338 3584
Q 2397 3584 2469 3576
Q 2541 3569 2628 3553
L 2631 2963
z
" transform="scale(0.015625)"/>
      </defs>
      <use xlink:href="#DejaVuSans-41"/>
      <use xlink:href="#DejaVuSans-62" transform="translate(68.408203 0)"/>
      <use xlink:href="#DejaVuSans-73" transform="translate(131.884766 0)"/>
      <use xlink:href="#DejaVuSans-6f" transform="translate(183.984375 0)"/>
      <use xlink:href="#DejaVuSans-6c" transform="translate(245.166016 0)"/>
      <use xlink:href="#DejaVuSans-75" transform="translate(272.949219 0)"/>
      <use xlink:href="#DejaVuSans-74" transform="translate(336.328125 0)"/>
      <use xlink:href="#DejaVuSans-65" transform="translate(375.537109 0)"/>
      <use xlink:href="#DejaVuSans-20" transform="translate(437.060547 0)"/>
      <use xlink:href="#DejaVuSans-65" transform="translate(468.847656 0)"/>
      <use xlink:href="#DejaVuSans-72" transform="translate(530.371094 0)"/>
      <use xlink:href="#DejaVuSans-72" transform="translate(569.734375 0)"/>
      <use xlink:href="#DejaVuSans-6f" transform="translate(608.597656 0)"/>
      <use xlink:href="#DejaVuSans-72" transform="translate(669.779297 0)"/>
     </g>
    </g>
   </g>
   <g id="line2d_33">
    <defs>
     <path id="mtt_rqm_003" d="M 0 3
C 0.795609 3 1.55874 2.683901 2.12132 2.12132
C 2.683901 1.55874 3 0.795609 3 0
C 3 -0.795609 2.683901 -1.55874 2.12132 -2.12132
C 1.55874 -2.683901 0.795609 -3 0 -3
C -0.795609 -3 -1.55874 -2.683901 -2.12132 -2.12132
C -2.683901 -1.55874 -3 -0.795609 -3 0
C -3 0.795609 -2.683901 1.55874 -2.12132 2.12132
C -1.55874 2.683901 -0.795609 3 0 3
z
" style="stroke: #4c78a8"/>
    </defs>
    <g clip-path="url(#ptt_rqm_006)">
     <use xlink:href="#mtt_rqm_003" x="58.876891" y="273.291588" style="fill: #4c78a8; stroke: #4c78a8"/>
     <use xlink:href="#mtt_rqm_003" x="73.178166" y="243.390459" style="fill: #4c78a8; stroke: #4c78a8"/>
     <use xlink:href="#mtt_rqm_003" x="130.383265" y="220.066982" style="fill: #4c78a8; stroke: #4c78a8"/>
     <use xlink:href="#mtt_rqm_003" x="359.203661" y="203.386751" style="fill: #4c78a8; stroke: #4c78a8"/>
     <use xlink:href="#mtt_rqm_003" x="130.383265" y="229.155368" style="fill: #4c78a8; stroke: #4c78a8"/>
     <use xlink:href="#mtt_rqm_003" x="130.383265" y="214.735321" style="fill: #4c78a8; stroke: #4c78a8"/>
     <use xlink:href="#mtt_rqm_003" x="130.383265" y="214.170044" style="fill: #4c78a8; stroke: #4c78a8"/>
     <use xlink:href="#mtt_rqm_003" x="130.383265" y="208.90359" style="fill: #4c78a8; stroke: #4c78a8"/>
    </g>
   </g>
   <g id="line2d_34">
    <path d="M 43.860552 31.540642
L 374.22 31.540642
" clip-path="url(#ptt_rqm_006)" style="fill: none; stroke-dasharray: 5.55,2.4; stroke-dashoffset: 0; stroke: #f58518; stroke-width: 1.5"/>
   </g>
   <g id="patch_3">
    <path d="M 43.860552 285.379135
L 43.860552 19.453095
" style="fill: none; stroke: #000000; stroke-width: 0.8; stroke-linejoin: miter; stroke-linecap: square"/>
   </g>
   <g id="patch_4">
    <path d="M 374.22 285.379135
L 374.22 19.453095
" style="fill: none; stroke: #000000; stroke-width: 0.8; stroke-linejoin: miter; stroke-linecap: square"/>
   </g>
   <g id="patch_5">
    <path d="M 43.860552 285.379135
L 374.22 285.379135
" style="fill: none; stroke: #000000; stroke-width: 0.8; stroke-linejoin: miter; stroke-linecap: square"/>
   </g>
   <g id="patch_6">
    <path d="M 43.860552 19.453095
L 374.22 19.453095
" style="fill: none; stroke: #000000; stroke-width: 0.8; stroke-linejoin: miter; stroke-linecap: square"/>
   </g>
   <g id="legend_1">
    <g id="patch_7">
     <path d="M 294.866719 280.879135
L 367.92 280.879135
Q 369.72 280.879135 369.72 279.079135
L 369.72 253.55851
Q 369.72 251.75851 367.92 251.75851
L 294.866719 251.75851
Q 293.066719 251.75851 293.066719 253.55851
L 293.066719 279.079135
Q 293.066719 280.879135 294.866719 280.879135
z
" style="fill: #ffffff; opacity: 0.8; stroke: #cccccc; stroke-linejoin: miter"/>
    </g>
    <g id="line2d_35">
     <g>
      <use xlink:href="#mtt_rqm_003" x="305.666719" y="259.047104" style="fill: #4c78a8; stroke: #4c78a8"/>
     </g>
    </g>
    <g id="text_12">
     <!-- max error -->
     <g transform="translate(321.866719 262.197104) scale(0.09 -0.09)">
      <defs>
       <path id="DejaVuSans-6d" d="M 3328 2828
Q 3544 3216 3844 3400
Q 4144 3584 4550 3584
Q 5097 3584 5394 3201
Q 5691 2819 5691 2113
L 5691 0
L 5113 0
L 5113 2094
Q 5113 2597 4934 2840
Q 4756 3084 4391 3084
Q 3944 3084 3684 2787
Q 3425 2491 3425 1978
L 3425 0
L 2847 0
L 2847 2094
Q 2847 2600 2669 2842
Q 2491 3084 2119 3084
Q 1678 3084 1418 2786
Q 1159 2488 1159 1978
L 1159 0
L 581 0
L 581 3500
L 1159 3500
L 1159 2956
Q 1356 3278 1631 3431
Q 1906 3584 2284 3584
Q 2666 3584 2933 3390
Q 3200 3197 3328 2828
z
" transform="scale(0.015625)"/>
       <path id="DejaVuSans-61" d="M 2194 1759
Q 1497 1759 1228 1600
Q 959 1441 959 1056
Q 959 750 1161 570
Q 1363 391 1709 391
Q 2188 391 2477 730
Q 2766 1069 2766 1631
L 2766 1759
L 2194 1759
z
M 3341 1997
L 3341 0
L 2766 0
L 2766 531
Q 2569 213 2275 61
Q 1981 -91 1556 -91
Q 1019 -91 701 211
Q 384 513 384 1019
Q 384 1609 779 1909
Q 1175 2209 1959 2209
L 2766 2209
L 2766 2266
Q 2766 2663 2505 2880
Q 2244 3097 1772 3097
Q 1472 3097 1187 3025
Q 903 2953 641 2809
L 641 3341
Q 956 3463 1253 3523
Q 1550 3584 1831 3584
Q 2591 3584 2966 3190
Q 3341 2797 3341 1997
z
" transform="scale(0.015625)"/>
       <path id="DejaVuSans-78" d="M 3513 3500
L 2247 1797
L 3578 0
L 2900 0
L 1881 1375
L 863 0
L 184 0
L 1544 1831
L 300 3500
L 978 3500
L 1906 2253
L 2834 3500
L 3513 3500
z
" transform="scale(0.015625)"/>
      </defs>
      <use xlink:href="#DejaVuSans-6d"/>
      <use xlink:href="#DejaVuSans-61" transform="translate(97.412109 0)"/>
      <use xlink:href="#DejaVuSans-78" transform="translate(158.691406 0)"/>
      <use xlink:href="#DejaVuSans-20" transform="translate(217.871094 0)"/>
      <use xlink:href="#DejaVuSans-65" transform="translate(249.658203 0)"/>
      <use xlink:href="#DejaVuSans-72" transform="translate(311.181641 0)"/>
      <use xlink:href="#DejaVuSans-72" transform="translate(350.544922 0)"/>
      <use xlink:href="#DejaVuSans-6f" transform="translate(389.408203 0)"/>
      <use xlink:href="#DejaVuSans-72" transform="translate(450.589844 0)"/>
     </g>
    </g>
    <g id="line2d_36">
     <path d="M 296.666719 272.257416
L 305.666719 272.257416
L 314.666719 272.257416
" style="fill: none; stroke-dasharray: 5.55,2.4; stroke-dashoffset: 0; stroke: #f58518; stroke-width: 1.5"/>
    </g>
    <g id="text_13">
     <!-- atol -->
     <g transform="translate(321.866719 275.407416) scale(0.09 -0.09)">
      <use xlink:href="#DejaVuSans-61"/>
      <use xlink:href="#DejaVuSans-74" transform="translate(61.279297 0)"/>
      <use xlink:href="#DejaVuSans-6f" transform="translate(100.488281 0)"/>
      <use xlink:href="#DejaVuSans-6c" transform="translate(161.669922 0)"/>
     </g>
    </g>
   </g>
  </g>
  <g id="axes_2">
   <g id="patch_8">
    <path d="M 422.640313 285.379135
L 752.99976 285.379135
L 752.99976 19.453095
L 422.640313 19.453095
z
" style="fill: #ffffff"/>
   </g>
   <g id="matplotlib.axis_3">
    <g id="xtick_7">
     <g id="line2d_37">
      <g>
       <use xlink:href="#mtt_rqm_000" x="432.889559" y="285.379135" style="stroke: #000000; stroke-width: 0.8"/>
      </g>
     </g>
     <g id="text_14">
      <!-- 0 -->
      <g transform="translate(430.026434 299.217729) scale(0.09 -0.09)">
       <use xlink:href="#DejaVuSans-30"/>
      </g>
     </g>
    </g>
    <g id="xtick_8">
     <g id="line2d_38">
      <g>
       <use xlink:href="#mtt_rqm_000" x="492.478204" y="285.379135" style="stroke: #000000; stroke-width: 0.8"/>
      </g>
     </g>
     <g id="text_15">
      <!-- 100 -->
      <g transform="translate(483.888829 299.217729) scale(0.09 -0.09)">
       <use xlink:href="#DejaVuSans-31"/>
       <use xlink:href="#DejaVuSans-30" transform="translate(63.623047 0)"/>
       <use xlink:href="#DejaVuSans-30" transform="translate(127.246094 0)"/>
      </g>
     </g>
    </g>
    <g id="xtick_9">
     <g id="line2d_39">
      <g>
       <use xlink:href="#mtt_rqm_000" x="552.066849" y="285.379135" style="stroke: #000000; stroke-width: 0.8"/>
      </g>
     </g>
     <g id="text_16">
      <!-- 200 -->
      <g transform="translate(543.477474 299.217729) scale(0.09 -0.09)">
       <use xlink:href="#DejaVuSans-32"/>
       <use xlink:href="#DejaVuSans-30" transform="translate(63.623047 0)"/>
       <use xlink:href="#DejaVuSans-30" transform="translate(127.246094 0)"/>
      </g>
     </g>
    </g>
    <g id="xtick_10">
     <g id="line2d_40">
      <g>
       <use xlink:href="#mtt_rqm_000" x="611.655494" y="285.379135" style="stroke: #000000; stroke-width: 0.8"/>
      </g>
     </g>
     <g id="text_17">
      <!-- 300 -->
      <g transform="translate(603.066119 299.217729) scale(0.09 -0.09)">
       <use xlink:href="#DejaVuSans-33"/>
       <use xlink:href="#DejaVuSans-30" transform="translate(63.623047 0)"/>
       <use xlink:href="#DejaVuSans-30" transform="translate(127.246094 0)"/>
      </g>
     </g>
    </g>
    <g id="xtick_11">
     <g id="line2d_41">
      <g>
       <use xlink:href="#mtt_rqm_000" x="671.244139" y="285.379135" style="stroke: #000000; stroke-width: 0.8"/>
      </g>
     </g>
     <g id="text_18">
      <!-- 400 -->
      <g transform="translate(662.654764 299.217729) scale(0.09 -0.09)">
       <use xlink:href="#DejaVuSans-34"/>
       <use xlink:href="#DejaVuSans-30" transform="translate(63.623047 0)"/>
       <use xlink:href="#DejaVuSans-30" transform="translate(127.246094 0)"/>
      </g>
     </g>
    </g>
    <g id="xtick_12">
     <g id="line2d_42">
      <g>
       <use xlink:href="#mtt_rqm_000" x="730.832784" y="285.379135" style="stroke: #000000; stroke-width: 0.8"/>
      </g>
     </g>
     <g id="text_19">
      <!-- 500 -->
      <g transform="translate(722.243409 299.217729) scale(0.09 -0.09)">
       <use xlink:href="#DejaVuSans-35"/>
       <use xlink:href="#DejaVuSans-30" transform="translate(63.623047 0)"/>
       <use xlink:href="#DejaVuSans-30" transform="translate(127.246094 0)"/>
      </g>
     </g>
    </g>
    <g id="text_20">
     <!-- K -->
     <g transform="translate(584.869021 311.928041) scale(0.09 -0.09)">
      <use xlink:href="#DejaVuSans-4b"/>
     </g>
    </g>
   </g>
   <g id="matplotlib.axis_4">
    <g id="ytick_27">
     <g id="line2d_43">
      <g>
       <use xlink:href="#mtt_rqm_001" x="422.640313" y="187.733943" style="stroke: #000000; stroke-width: 0.8"/>
      </g>
     </g>
     <g id="text_21">
      <!-- $\mathdefault{10^{-6}}$ -->
      <g transform="translate(394.490313 191.153239) scale(0.09 -0.09)">
       <use xlink:href="#DejaVuSans-31" transform="translate(0 0.765625)"/>
       <use xlink:href="#DejaVuSans-30" transform="translate(63.623047 0.765625)"/>
       <use xlink:href="#DejaVuSans-2212" transform="translate(128.203125 39.046875) scale(0.7)"/>
       <use xlink:href="#DejaVuSans-36" transform="translate(186.855469 39.046875) scale(0.7)"/>
      </g>
     </g>
    </g>
    <g id="ytick_28">
     <g id="line2d_44">
      <g>
       <use xlink:href="#mtt_rqm_001" x="422.640313" y="29.914431" style="stroke: #000000; stroke-width: 0.8"/>
      </g>
     </g>
     <g id="text_22">
      <!-- $\mathdefault{10^{-5}}$ -->
      <g transform="translate(394.490313 33.333728) scale(0.09 -0.09)">
       <use xlink:href="#DejaVuSans-31" transform="translate(0 0.684375)"/>
       <use xlink:href="#DejaVuSans-30" transform="translate(63.623047 0.684375)"/>
       <use xlink:href="#DejaVuSans-2212" transform="translate(128.203125 38.965625) scale(0.7)"/>
       <use xlink:href="#DejaVuSans-35" transform="translate(186.855469 38.965625) scale(0.7)"/>
      </g>
     </g>
    </g>
    <g id="ytick_29">
     <g id="line2d_45">
      <g>
       <use xlink:href="#mtt_rqm_002" x="422.640313" y="270.254411" style="stroke: #000000; stroke-width: 0.6"/>
      </g>
     </g>
    </g>
    <g id="ytick_30">
     <g id="line2d_46">
      <g>
       <use xlink:href="#mtt_rqm_002" x="422.640313" y="250.53664" style="stroke: #000000; stroke-width: 0.6"/>
      </g>
     </g>
    </g>
    <g id="ytick_31">
     <g id="line2d_47">
      <g>
       <use xlink:href="#mtt_rqm_002" x="422.640313" y="235.242349" style="stroke: #000000; stroke-width: 0.6"/>
      </g>
     </g>
    </g>
    <g id="ytick_32">
     <g id="line2d_48">
      <g>
       <use xlink:href="#mtt_rqm_002" x="422.640313" y="222.746004" style="stroke: #000000; stroke-width: 0.6"/>
      </g>
     </g>
    </g>
    <g id="ytick_33">
     <g id="line2d_49">
      <g>
       <use xlink:href="#mtt_rqm_002" x="422.640313" y="212.180494" style="stroke: #000000; stroke-width: 0.6"/>
      </g>
     </g>
    </g>
    <g id="ytick_34">
     <g id="line2d_50">
      <g>
       <use xlink:href="#mtt_rqm_002" x="422.640313" y="203.028233" style="stroke: #000000; stroke-width: 0.6"/>
      </g>
     </g>
    </g>
    <g id="ytick_35">
     <g id="line2d_51">
      <g>
       <use xlink:href="#mtt_rqm_002" x="422.640313" y="194.955367" style="stroke: #000000; stroke-width: 0.6"/>
      </g>
     </g>
    </g>
    <g id="ytick_36">
     <g id="line2d_52">
      <g>
       <use xlink:href="#mtt_rqm_002" x="422.640313" y="140.225536" style="stroke: #000000; stroke-width: 0.6"/>
      </g>
     </g>
    </g>
    <g id="ytick_37">
     <g id="line2d_53">
      <g>
       <use xlink:href="#mtt_rqm_002" x="422.640313" y="112.434899" style="stroke: #000000; stroke-width: 0.6"/>
      </g>
     </g>
    </g>
    <g id="ytick_38">
     <g id="line2d_54">
      <g>
       <use xlink:href="#mtt_rqm_002" x="422.640313" y="92.717129" style="stroke: #000000; stroke-width: 0.6"/>
      </g>
     </g>
    </g>
    <g id="ytick_39">
     <g id="line2d_55">
      <g>
       <use xlink:href="#mtt_rqm_002" x="422.640313" y="77.422838" style="stroke: #000000; stroke-width: 0.6"/>
      </g>
     </g>
    </g>
    <g id="ytick_40">
     <g id="line2d_56">
      <g>
       <use xlink:href="#mtt_rqm_002" x="422.640313" y="64.926492" style="stroke: #000000; stroke-width: 0.6"/>
      </g>
     </g>
    </g>
    <g id="ytick_41">
     <g id="line2d_57">
      <g>
       <use xlink:href="#mtt_rqm_002" x="422.640313" y="54.360983" style="stroke: #000000; stroke-width: 0.6"/>
      </g>
     </g>
    </g>
    <g id="ytick_42">
     <g id="line2d_58">
      <g>
       <use xlink:href="#mtt_rqm_002" x="422.640313" y="45.208722" style="stroke: #000000; stroke-width: 0.6"/>
      </g>
     </g>
    </g>
    <g id="ytick_43">
     <g id="line2d_59">
      <g>
       <use xlink:href="#mtt_rqm_002" x="422.640313" y="37.135856" style="stroke: #000000; stroke-width: 0.6"/>
      </g>
     </g>
    </g>
    <g id="text_23">
     <!-- Drift -->
     <g transform="translate(388.618594 162.250724) rotate(-90) scale(0.09 -0.09)">
      <defs>
       <path id="DejaVuSans-44" d="M 1259 4147
L 1259 519
L 2022 519
Q 2988 519 3436 956
Q 3884 1394 3884 2338
Q 3884 3275 3436 3711
Q 2988 4147 2022 4147
L 1259 4147
z
M 628 4666
L 1925 4666
Q 3281 4666 3915 4102
Q 4550 3538 4550 2338
Q 4550 1131 3912 565
Q 3275 0 1925 0
L 628 0
L 628 4666
z
" transform="scale(0.015625)"/>
       <path id="DejaVuSans-69" d="M 603 3500
L 1178 3500
L 1178 0
L 603 0
L 603 3500
z
M 603 4863
L 1178 4863
L 1178 4134
L 603 4134
L 603 4863
z
" transform="scale(0.015625)"/>
       <path id="DejaVuSans-66" d="M 2375 4863
L 2375 4384
L 1825 4384
Q 1516 4384 1395 4259
Q 1275 4134 1275 3809
L 1275 3500
L 2222 3500
L 2222 3053
L 1275 3053
L 1275 0
L 697 0
L 697 3053
L 147 3053
L 147 3500
L 697 3500
L 697 3744
Q 697 4328 969 4595
Q 1241 4863 1831 4863
L 2375 4863
z
" transform="scale(0.015625)"/>
      </defs>
      <use xlink:href="#DejaVuSans-44"/>
      <use xlink:href="#DejaVuSans-72" transform="translate(77.001953 0)"/>
      <use xlink:href="#DejaVuSans-69" transform="translate(118.115234 0)"/>
      <use xlink:href="#DejaVuSans-66" transform="translate(145.898438 0)"/>
      <use xlink:href="#DejaVuSans-74" transform="translate(179.353516 0)"/>
     </g>
    </g>
   </g>
   <g id="line2d_60">
    <g clip-path="url(#ptt_rqm_007)">
     <use xlink:href="#mtt_rqm_003" x="437.656651" y="243.530616" style="fill: #4c78a8; stroke: #4c78a8"/>
     <use xlink:href="#mtt_rqm_003" x="451.957926" y="204.410716" style="fill: #4c78a8; stroke: #4c78a8"/>
     <use xlink:href="#mtt_rqm_003" x="509.163025" y="159.246701" style="fill: #4c78a8; stroke: #4c78a8"/>
     <use xlink:href="#mtt_rqm_003" x="737.983421" y="79.049216" style="fill: #4c78a8; stroke: #4c78a8"/>
     <use xlink:href="#mtt_rqm_003" x="509.163025" y="159.246701" style="fill: #4c78a8; stroke: #4c78a8"/>
     <use xlink:href="#mtt_rqm_003" x="509.163025" y="154.455014" style="fill: #4c78a8; stroke: #4c78a8"/>
     <use xlink:href="#mtt_rqm_003" x="509.163025" y="158.984358" style="fill: #4c78a8; stroke: #4c78a8"/>
     <use xlink:href="#mtt_rqm_003" x="509.163025" y="148.512038" style="fill: #4c78a8; stroke: #4c78a8"/>
    </g>
   </g>
   <g id="line2d_61">
    <defs>
     <path id="mtt_rqm_004" d="M 0 3
C 0.795609 3 1.55874 2.683901 2.12132 2.12132
C 2.683901 1.55874 3 0.795609 3 0
C 3 -0.795609 2.683901 -1.55874 2.12132 -2.12132
C 1.55874 -2.683901 0.795609 -3 0 -3
C -0.795609 -3 -1.55874 -2.683901 -2.12132 -2.12132
C -2.683901 -1.55874 -3 -0.795609 -3 0
C -3 0.795609 -2.683901 1.55874 -2.12132 2.12132
C -1.55874 2.683901 -0.795609 3 0 3
z
" style="stroke: #f58518"/>
    </defs>
    <g clip-path="url(#ptt_rqm_007)">
     <use xlink:href="#mtt_rqm_004" x="437.656651" y="273.291588" style="fill: #f58518; stroke: #f58518"/>
     <use xlink:href="#mtt_rqm_004" x="451.957926" y="214.34023" style="fill: #f58518; stroke: #f58518"/>
     <use xlink:href="#mtt_rqm_004" x="509.163025" y="174.640854" style="fill: #f58518; stroke: #f58518"/>
     <use xlink:href="#mtt_rqm_004" x="737.983421" y="125.758853" style="fill: #f58518; stroke: #f58518"/>
     <use xlink:href="#mtt_rqm_004" x="509.163025" y="187.201919" style="fill: #f58518; stroke: #f58518"/>
     <use xlink:href="#mtt_rqm_004" x="509.163025" y="171.586345" style="fill: #f58518; stroke: #f58518"/>
     <use xlink:href="#mtt_rqm_004" x="509.163025" y="163.741743" style="fill: #f58518; stroke: #f58518"/>
     <use xlink:href="#mtt_rqm_004" x="509.163025" y="156.478481" style="fill: #f58518; stroke: #f58518"/>
    </g>
   </g>
   <g id="line2d_62">
    <defs>
     <path id="mtt_rqm_005" d="M 0 3
C 0.795609 3 1.55874 2.683901 2.12132 2.12132
C 2.683901 1.55874 3 0.795609 3 0
C 3 -0.795609 2.683901 -1.55874 2.12132 -2.12132
C 1.55874 -2.683901 0.795609 -3 0 -3
C -0.795609 -3 -1.55874 -2.683901 -2.12132 -2.12132
C -2.683901 -1.55874 -3 -0.795609 -3 0
C -3 0.795609 -2.683901 1.55874 -2.12132 2.12132
C -1.55874 2.683901 -0.795609 3 0 3
z
" style="stroke: #54a24b"/>
    </defs>
    <g clip-path="url(#ptt_rqm_007)">
     <use xlink:href="#mtt_rqm_005" x="437.656651" y="176.315681" style="fill: #54a24b; stroke: #54a24b"/>
     <use xlink:href="#mtt_rqm_005" x="451.957926" y="143.735536" style="fill: #54a24b; stroke: #54a24b"/>
     <use xlink:href="#mtt_rqm_005" x="509.163025" y="93.49863" style="fill: #54a24b; stroke: #54a24b"/>
     <use xlink:href="#mtt_rqm_005" x="737.983421" y="31.540642" style="fill: #54a24b; stroke: #54a24b"/>
     <use xlink:href="#mtt_rqm_005" x="509.163025" y="99.831819" style="fill: #54a24b; stroke: #54a24b"/>
     <use xlink:href="#mtt_rqm_005" x="509.163025" y="95.882065" style="fill: #54a24b; stroke: #54a24b"/>
     <use xlink:href="#mtt_rqm_005" x="509.163025" y="82.287611" style="fill: #54a24b; stroke: #54a24b"/>
     <use xlink:href="#mtt_rqm_005" x="509.163025" y="80.76483" style="fill: #54a24b; stroke: #54a24b"/>
    </g>
   </g>
   <g id="patch_9">
    <path d="M 422.640313 285.379135
L 422.640313 19.453095
" style="fill: none; stroke: #000000; stroke-width: 0.8; stroke-linejoin: miter; stroke-linecap: square"/>
   </g>
   <g id="patch_10">
    <path d="M 752.99976 285.379135
L 752.99976 19.453095
" style="fill: none; stroke: #000000; stroke-width: 0.8; stroke-linejoin: miter; stroke-linecap: square"/>
   </g>
   <g id="patch_11">
    <path d="M 422.640313 285.379135
L 752.99976 285.379135
" style="fill: none; stroke: #000000; stroke-width: 0.8; stroke-linejoin: miter; stroke-linecap: square"/>
   </g>
   <g id="patch_12">
    <path d="M 422.640313 19.453095
L 752.99976 19.453095
" style="fill: none; stroke: #000000; stroke-width: 0.8; stroke-linejoin: miter; stroke-linecap: square"/>
   </g>
   <g id="legend_2">
    <g id="patch_13">
     <path d="M 427.540313 55.877158
L 525.111563 55.877158
Q 526.511563 55.877158 526.511563 54.477158
L 526.511563 24.353095
Q 526.511563 22.953095 525.111563 22.953095
L 427.540313 22.953095
Q 426.140313 22.953095 426.140313 24.353095
L 426.140313 54.477158
Q 426.140313 55.877158 427.540313 55.877158
z
" style="fill: #ffffff; opacity: 0.8; stroke: #cccccc; stroke-linejoin: miter"/>
    </g>
    <g id="line2d_63">
     <g>
      <use xlink:href="#mtt_rqm_003" x="435.940313" y="28.622001" style="fill: #4c78a8; stroke: #4c78a8"/>
     </g>
    </g>
    <g id="text_24">
     <!-- quaternion norm drift -->
     <g transform="translate(448.540313 31.072001) scale(0.07 -0.07)">
      <defs>
       <path id="DejaVuSans-71" d="M 947 1747
Q 947 1113 1208 752
Q 1469 391 1925 391
Q 2381 391 2643 752
Q 2906 1113 2906 1747
Q 2906 2381 2643 2742
Q 2381 3103 1925 3103
Q 1469 3103 1208 2742
Q 947 2381 947 1747
z
M 2906 525
Q 2725 213 2448 61
Q 2172 -91 1784 -91
Q 1150 -91 751 415
Q 353 922 353 1747
Q 353 2572 751 3078
Q 1150 3584 1784 3584
Q 2172 3584 2448 3432
Q 2725 3281 2906 2969
L 2906 3500
L 3481 3500
L 3481 -1331
L 2906 -1331
L 2906 525
z
" transform="scale(0.015625)"/>
       <path id="DejaVuSans-6e" d="M 3513 2113
L 3513 0
L 2938 0
L 2938 2094
Q 2938 2591 2744 2837
Q 2550 3084 2163 3084
Q 1697 3084 1428 2787
Q 1159 2491 1159 1978
L 1159 0
L 581 0
L 581 3500
L 1159 3500
L 1159 2956
Q 1366 3272 1645 3428
Q 1925 3584 2291 3584
Q 2894 3584 3203 3211
Q 3513 2838 3513 2113
z
" transform="scale(0.015625)"/>
       <path id="DejaVuSans-64" d="M 2906 2969
L 2906 4863
L 3481 4863
L 3481 0
L 2906 0
L 2906 525
Q 2725 213 2448 61
Q 2172 -91 1784 -91
Q 1150 -91 751 415
Q 353 922 353 1747
Q 353 2572 751 3078
Q 1150 3584 1784 3584
Q 2172 3584 2448 3432
Q 2725 3281 2906 2969
z
M 947 1747
Q 947 1113 1208 752
Q 1469 391 1925 391
Q 2381 391 2643 752
Q 2906 1113 2906 1747
Q 2906 2381 2643 2742
Q 2381 3103 1925 3103
Q 1469 3103 1208 2742
Q 947 2381 947 1747
z
" transform="scale(0.015625)"/>
      </defs>
      <use xlink:href="#DejaVuSans-71"/>
      <use xlink:href="#DejaVuSans-75" transform="translate(63.476562 0)"/>
      <use xlink:href="#DejaVuSans-61" transform="translate(126.855469 0)"/>
      <use xlink:href="#DejaVuSans-74" transform="translate(188.134766 0)"/>
      <use xlink:href="#DejaVuSans-65" transform="translate(227.34375 0)"/>
      <use xlink:href="#DejaVuSans-72" transform="translate(288.867188 0)"/>
      <use xlink:href="#DejaVuSans-6e" transform="translate(328.230469 0)"/>
      <use xlink:href="#DejaVuSans-69" transform="translate(391.609375 0)"/>
      <use xlink:href="#DejaVuSans-6f" transform="translate(419.392578 0)"/>
      <use xlink:href="#DejaVuSans-6e" transform="translate(480.574219 0)"/>
      <use xlink:href="#DejaVuSans-20" transform="translate(543.953125 0)"/>
      <use xlink:href="#DejaVuSans-6e" transform="translate(575.740234 0)"/>
      <use xlink:href="#DejaVuSans-6f" transform="translate(639.119141 0)"/>
      <use xlink:href="#DejaVuSans-72" transform="translate(700.300781 0)"/>
      <use xlink:href="#DejaVuSans-6d" transform="translate(739.664062 0)"/>
      <use xlink:href="#DejaVuSans-20" transform="translate(837.076172 0)"/>
      <use xlink:href="#DejaVuSans-64" transform="translate(868.863281 0)"/>
      <use xlink:href="#DejaVuSans-72" transform="translate(932.339844 0)"/>
      <use xlink:href="#DejaVuSans-69" transform="translate(973.453125 0)"/>
      <use xlink:href="#DejaVuSans-66" transform="translate(1001.236328 0)"/>
      <use xlink:href="#DejaVuSans-74" transform="translate(1034.691406 0)"/>
     </g>
    </g>
    <g id="line2d_64">
     <g>
      <use xlink:href="#mtt_rqm_004" x="435.940313" y="38.896689" style="fill: #f58518; stroke: #f58518"/>
     </g>
    </g>
    <g id="text_25">
     <!-- phase norm drift -->
     <g transform="translate(448.540313 41.346689) scale(0.07 -0.07)">
      <defs>
       <path id="DejaVuSans-70" d="M 1159 525
L 1159 -1331
L 581 -1331
L 581 3500
L 1159 3500
L 1159 2969
Q 1341 3281 1617 3432
Q 1894 3584 2278 3584
Q 2916 3584 3314 3078
Q 3713 2572 3713 1747
Q 3713 922 3314 415
Q 2916 -91 2278 -91
Q 1894 -91 1617 61
Q 1341 213 1159 525
z
M 3116 1747
Q 3116 2381 2855 2742
Q 2594 3103 2138 3103
Q 1681 3103 1420 2742
Q 1159 2381 1159 1747
Q 1159 1113 1420 752
Q 1681 391 2138 391
Q 2594 391 2855 752
Q 3116 1113 3116 1747
z
" transform="scale(0.015625)"/>
       <path id="DejaVuSans-68" d="M 3513 2113
L 3513 0
L 2938 0
L 2938 2094
Q 2938 2591 2744 2837
Q 2550 3084 2163 3084
Q 1697 3084 1428 2787
Q 1159 2491 1159 1978
L 1159 0
L 581 0
L 581 4863
L 1159 4863
L 1159 2956
Q 1366 3272 1645 3428
Q 1925 3584 2291 3584
Q 2894 3584 3203 3211
Q 3513 2838 3513 2113
z
" transform="scale(0.015625)"/>
      </defs>
      <use xlink:href="#DejaVuSans-70"/>
      <use xlink:href="#DejaVuSans-68" transform="translate(63.476562 0)"/>
      <use xlink:href="#DejaVuSans-61" transform="translate(126.855469 0)"/>
      <use xlink:href="#DejaVuSans-73" transform="translate(188.134766 0)"/>
      <use xlink:href="#DejaVuSans-65" transform="translate(240.234375 0)"/>
      <use xlink:href="#DejaVuSans-20" transform="translate(301.757812 0)"/>
      <use xlink:href="#DejaVuSans-6e" transform="translate(333.544922 0)"/>
      <use xlink:href="#DejaVuSans-6f" transform="translate(396.923828 0)"/>
      <use xlink:href="#DejaVuSans-72" transform="translate(458.105469 0)"/>
      <use xlink:href="#DejaVuSans-6d" transform="translate(497.46875 0)"/>
      <use xlink:href="#DejaVuSans-20" transform="translate(594.880859 0)"/>
      <use xlink:href="#DejaVuSans-64" transform="translate(626.667969 0)"/>
      <use xlink:href="#DejaVuSans-72" transform="translate(690.144531 0)"/>
      <use xlink:href="#DejaVuSans-69" transform="translate(731.257812 0)"/>
      <use xlink:href="#DejaVuSans-66" transform="translate(759.041016 0)"/>
      <use xlink:href="#DejaVuSans-74" transform="translate(792.496094 0)"/>
     </g>
    </g>
    <g id="line2d_65">
     <g>
      <use xlink:href="#mtt_rqm_005" x="435.940313" y="49.171376" style="fill: #54a24b; stroke: #54a24b"/>
     </g>
    </g>
    <g id="text_26">
     <!-- bloch norm drift -->
     <g transform="translate(448.540313 51.621376) scale(0.07 -0.07)">
      <defs>
       <path id="DejaVuSans-63" d="M 3122 3366
L 3122 2828
Q 2878 2963 2633 3030
Q 2388 3097 2138 3097
Q 1578 3097 1268 2742
Q 959 2388 959 1747
Q 959 1106 1268 751
Q 1578 397 2138 397
Q 2388 397 2633 464
Q 2878 531 3122 666
L 3122 134
Q 2881 22 2623 -34
Q 2366 -91 2075 -91
Q 1284 -91 818 406
Q 353 903 353 1747
Q 353 2603 823 3093
Q 1294 3584 2113 3584
Q 2378 3584 2631 3529
Q 2884 3475 3122 3366
z
" transform="scale(0.015625)"/>
      </defs>
      <use xlink:href="#DejaVuSans-62"/>
      <use xlink:href="#DejaVuSans-6c" transform="translate(63.476562 0)"/>
      <use xlink:href="#DejaVuSans-6f" transform="translate(91.259766 0)"/>
      <use xlink:href="#DejaVuSans-63" transform="translate(152.441406 0)"/>
      <use xlink:href="#DejaVuSans-68" transform="translate(207.421875 0)"/>
      <use xlink:href="#DejaVuSans-20" transform="translate(270.800781 0)"/>
      <use xlink:href="#DejaVuSans-6e" transform="translate(302.587891 0)"/>
      <use xlink:href="#DejaVuSans-6f" transform="translate(365.966797 0)"/>
      <use xlink:href="#DejaVuSans-72" transform="translate(427.148438 0)"/>
      <use xlink:href="#DejaVuSans-6d" transform="translate(466.511719 0)"/>
      <use xlink:href="#DejaVuSans-20" transform="translate(563.923828 0)"/>
      <use xlink:href="#DejaVuSans-64" transform="translate(595.710938 0)"/>
      <use xlink:href="#DejaVuSans-72" transform="translate(659.1875 0)"/>
      <use xlink:href="#DejaVuSans-69" transform="translate(700.300781 0)"/>
      <use xlink:href="#DejaVuSans-66" transform="translate(728.083984 0)"/>
      <use xlink:href="#DejaVuSans-74" transform="translate(761.539062 0)"/>
     </g>
    </g>
   </g>
  </g>
  <g id="text_27">
   <!-- Whole-output error and drift versus chain length -->
   <g transform="translate(247.02975 11.206553) scale(0.108 -0.108)">
    <defs>
     <path id="DejaVuSans-57" d="M 213 4666
L 850 4666
L 1831 722
L 2809 4666
L 3519 4666
L 4500 722
L 5478 4666
L 6119 4666
L 4947 0
L 4153 0
L 3169 4050
L 2175 0
L 1381 0
L 213 4666
z
" transform="scale(0.015625)"/>
     <path id="DejaVuSans-2d" d="M 313 2009
L 1997 2009
L 1997 1497
L 313 1497
L 313 2009
z
" transform="scale(0.015625)"/>
     <path id="DejaVuSans-76" d="M 191 3500
L 800 3500
L 1894 563
L 2988 3500
L 3597 3500
L 2284 0
L 1503 0
L 191 3500
z
" transform="scale(0.015625)"/>
     <path id="DejaVuSans-67" d="M 2906 1791
Q 2906 2416 2648 2759
Q 2391 3103 1925 3103
Q 1463 3103 1205 2759
Q 947 2416 947 1791
Q 947 1169 1205 825
Q 1463 481 1925 481
Q 2391 481 2648 825
Q 2906 1169 2906 1791
z
M 3481 434
Q 3481 -459 3084 -895
Q 2688 -1331 1869 -1331
Q 1566 -1331 1297 -1286
Q 1028 -1241 775 -1147
L 775 -588
Q 1028 -725 1275 -790
Q 1522 -856 1778 -856
Q 2344 -856 2625 -561
Q 2906 -266 2906 331
L 2906 616
Q 2728 306 2450 153
Q 2172 0 1784 0
Q 1141 0 747 490
Q 353 981 353 1791
Q 353 2603 747 3093
Q 1141 3584 1784 3584
Q 2172 3584 2450 3431
Q 2728 3278 2906 2969
L 2906 3500
L 3481 3500
L 3481 434
z
" transform="scale(0.015625)"/>
    </defs>
    <use xlink:href="#DejaVuSans-57"/>
    <use xlink:href="#DejaVuSans-68" transform="translate(98.876953 0)"/>
    <use xlink:href="#DejaVuSans-6f" transform="translate(162.255859 0)"/>
    <use xlink:href="#DejaVuSans-6c" transform="translate(223.4375 0)"/>
    <use xlink:href="#DejaVuSans-65" transform="translate(251.220703 0)"/>
    <use xlink:href="#DejaVuSans-2d" transform="translate(312.744141 0)"/>
    <use xlink:href="#DejaVuSans-6f" transform="translate(350.703125 0)"/>
    <use xlink:href="#DejaVuSans-75" transform="translate(411.884766 0)"/>
    <use xlink:href="#DejaVuSans-74" transform="translate(475.263672 0)"/>
    <use xlink:href="#DejaVuSans-70" transform="translate(514.472656 0)"/>
    <use xlink:href="#DejaVuSans-75" transform="translate(577.949219 0)"/>
    <use xlink:href="#DejaVuSans-74" transform="translate(641.328125 0)"/>
    <use xlink:href="#DejaVuSans-20" transform="translate(680.537109 0)"/>
    <use xlink:href="#DejaVuSans-65" transform="translate(712.324219 0)"/>
    <use xlink:href="#DejaVuSans-72" transform="translate(773.847656 0)"/>
    <use xlink:href="#DejaVuSans-72" transform="translate(813.210938 0)"/>
    <use xlink:href="#DejaVuSans-6f" transform="translate(852.074219 0)"/>
    <use xlink:href="#DejaVuSans-72" transform="translate(913.255859 0)"/>
    <use xlink:href="#DejaVuSans-20" transform="translate(954.369141 0)"/>
    <use xlink:href="#DejaVuSans-61" transform="translate(986.15625 0)"/>
    <use xlink:href="#DejaVuSans-6e" transform="translate(1047.435547 0)"/>
    <use xlink:href="#DejaVuSans-64" transform="translate(1110.814453 0)"/>
    <use xlink:href="#DejaVuSans-20" transform="translate(1174.291016 0)"/>
    <use xlink:href="#DejaVuSans-64" transform="translate(1206.078125 0)"/>
    <use xlink:href="#DejaVuSans-72" transform="translate(1269.554688 0)"/>
    <use xlink:href="#DejaVuSans-69" transform="translate(1310.667969 0)"/>
    <use xlink:href="#DejaVuSans-66" transform="translate(1338.451172 0)"/>
    <use xlink:href="#DejaVuSans-74" transform="translate(1371.90625 0)"/>
    <use xlink:href="#DejaVuSans-20" transform="translate(1411.115234 0)"/>
    <use xlink:href="#DejaVuSans-76" transform="translate(1442.902344 0)"/>
    <use xlink:href="#DejaVuSans-65" transform="translate(1502.082031 0)"/>
    <use xlink:href="#DejaVuSans-72" transform="translate(1563.605469 0)"/>
    <use xlink:href="#DejaVuSans-73" transform="translate(1604.71875 0)"/>
    <use xlink:href="#DejaVuSans-75" transform="translate(1656.818359 0)"/>
    <use xlink:href="#DejaVuSans-73" transform="translate(1720.197266 0)"/>
    <use xlink:href="#DejaVuSans-20" transform="translate(1772.296875 0)"/>
    <use xlink:href="#DejaVuSans-63" transform="translate(1804.083984 0)"/>
    <use xlink:href="#DejaVuSans-68" transform="translate(1859.064453 0)"/>
    <use xlink:href="#DejaVuSans-61" transform="translate(1922.443359 0)"/>
    <use xlink:href="#DejaVuSans-69" transform="translate(1983.722656 0)"/>
    <use xlink:href="#DejaVuSans-6e" transform="translate(2011.505859 0)"/>
    <use xlink:href="#DejaVuSans-20" transform="translate(2074.884766 0)"/>
    <use xlink:href="#DejaVuSans-6c" transform="translate(2106.671875 0)"/>
    <use xlink:href="#DejaVuSans-65" transform="translate(2134.455078 0)"/>
    <use xlink:href="#DejaVuSans-6e" transform="translate(2195.978516 0)"/>
    <use xlink:href="#DejaVuSans-67" transform="translate(2259.357422 0)"/>
    <use xlink:href="#DejaVuSans-74" transform="translate(2322.833984 0)"/>
    <use xlink:href="#DejaVuSans-68" transform="translate(2362.042969 0)"/>
   </g>
  </g>
 </g>
 <defs>
  <clipPath id="ptt_rqm_006">
   <rect x="43.860552" y="19.453095" width="330.359447" height="265.92604"/>
  </clipPath>
  <clipPath id="ptt_rqm_007">
   <rect x="422.640313" y="19.453095" width="330.359447" height="265.92604"/>
  </clipPath>
 </defs>
</svg>
